<mxfile host="app.diagrams.net" agent="Mozilla/5.0 (Windows NT 10.0; Win64; x64) AppleWebKit/537.36 (KHTML, like Gecko) Chrome/134.0.0.0 Safari/537.36" version="26.1.1">
  <diagram name="Page-1" id="e3a06f82-3646-2815-327d-82caf3d4e204">
    <mxGraphModel dx="1323" dy="700" grid="1" gridSize="10" guides="1" tooltips="1" connect="1" arrows="1" fold="1" page="1" pageScale="1.5" pageWidth="827" pageHeight="1169" background="none" math="0" shadow="0">
      <root>
        <mxCell id="0" style=";html=1;" />
        <mxCell id="1" style=";html=1;" parent="0" />
        <mxCell id="6a7d8f32e03d9370-61" value="Outside Networks" style="whiteSpace=wrap;html=1;fillColor=#f8cecc;fontSize=14;strokeColor=none;verticalAlign=top;" parent="1" vertex="1">
          <mxGeometry x="1084" y="296" width="493" height="360" as="geometry" />
        </mxCell>
        <mxCell id="6a7d8f32e03d9370-60" value="Enterprise cloud" style="whiteSpace=wrap;html=1;fillColor=#d5e8d4;fontSize=14;strokeColor=none;verticalAlign=top;" parent="1" vertex="1">
          <mxGeometry x="937" y="764" width="602" height="374" as="geometry" />
        </mxCell>
        <mxCell id="6a7d8f32e03d9370-59" value="patroni cluster" style="whiteSpace=wrap;html=1;fillColor=#EDEDED;fontSize=14;strokeColor=none;verticalAlign=top;" parent="1" vertex="1">
          <mxGeometry x="599" y="98" width="251" height="552" as="geometry" />
        </mxCell>
        <mxCell id="6a7d8f32e03d9370-58" value="Residential Private Networks" style="whiteSpace=wrap;html=1;fillColor=#dae8fc;fontSize=14;strokeColor=none;verticalAlign=top;" parent="1" vertex="1">
          <mxGeometry x="177" y="863" width="310" height="318" as="geometry" />
        </mxCell>
        <mxCell id="6a7d8f32e03d9370-57" value="etcd cluster" style="whiteSpace=wrap;html=1;fillColor=#FFD470;gradientColor=none;fontSize=14;strokeColor=none;verticalAlign=top;" parent="1" vertex="1">
          <mxGeometry x="300" y="97" width="187" height="553" as="geometry" />
        </mxCell>
        <mxCell id="6a7d8f32e03d9370-36" style="edgeStyle=none;rounded=0;html=1;startSize=10;endSize=10;jettySize=auto;orthogonalLoop=1;fontSize=14;endArrow=none;endFill=0;strokeWidth=2;" parent="1" source="6a7d8f32e03d9370-1" edge="1">
          <mxGeometry relative="1" as="geometry">
            <mxPoint x="636.9999999999995" y="1014.1923076923081" as="targetPoint" />
          </mxGeometry>
        </mxCell>
        <mxCell id="6a7d8f32e03d9370-1" value="Client" style="verticalLabelPosition=bottom;aspect=fixed;html=1;verticalAlign=top;strokeColor=none;shape=mxgraph.citrix.laptop_2;fillColor=#66B2FF;gradientColor=#0066CC;fontSize=14;" parent="1" vertex="1">
          <mxGeometry x="350.4999999999999" y="927" width="116" height="86.5" as="geometry" />
        </mxCell>
        <mxCell id="6a7d8f32e03d9370-34" style="edgeStyle=none;rounded=0;html=1;startSize=10;endSize=10;jettySize=auto;orthogonalLoop=1;fontSize=14;endArrow=none;endFill=0;strokeWidth=2;" parent="1" source="6a7d8f32e03d9370-3" edge="1">
          <mxGeometry relative="1" as="geometry">
            <mxPoint x="637" y="529.1465028355387" as="targetPoint" />
          </mxGeometry>
        </mxCell>
        <mxCell id="OnugJWIFJ-SHljwlnt-U-6" value="" style="edgeStyle=none;rounded=0;orthogonalLoop=1;jettySize=auto;html=1;endArrow=none;startFill=0;" edge="1" parent="1" source="6a7d8f32e03d9370-3" target="6a7d8f32e03d9370-4">
          <mxGeometry relative="1" as="geometry" />
        </mxCell>
        <mxCell id="6a7d8f32e03d9370-3" value="etcd3&lt;div&gt;&lt;br&gt;&lt;/div&gt;" style="verticalLabelPosition=bottom;aspect=fixed;html=1;verticalAlign=top;strokeColor=none;shape=mxgraph.citrix.desktop;fillColor=#66B2FF;gradientColor=#0066CC;fontSize=14;align=left;" parent="1" vertex="1">
          <mxGeometry x="365.99999999999994" y="483.99999999999994" width="89" height="98" as="geometry" />
        </mxCell>
        <mxCell id="6a7d8f32e03d9370-33" style="edgeStyle=none;rounded=0;html=1;startSize=10;endSize=10;jettySize=auto;orthogonalLoop=1;fontSize=14;endArrow=none;endFill=0;strokeWidth=2;" parent="1" source="6a7d8f32e03d9370-4" edge="1">
          <mxGeometry relative="1" as="geometry">
            <mxPoint x="637" y="365.14650283553897" as="targetPoint" />
          </mxGeometry>
        </mxCell>
        <mxCell id="6a7d8f32e03d9370-4" value="etcd2" style="verticalLabelPosition=bottom;aspect=fixed;html=1;verticalAlign=top;strokeColor=none;shape=mxgraph.citrix.desktop;fillColor=#66B2FF;gradientColor=#0066CC;fontSize=14;align=left;" parent="1" vertex="1">
          <mxGeometry x="365.99999999999994" y="320.00000000000006" width="89" height="98" as="geometry" />
        </mxCell>
        <mxCell id="6a7d8f32e03d9370-32" style="edgeStyle=none;rounded=0;html=1;startSize=10;endSize=10;jettySize=auto;orthogonalLoop=1;fontSize=14;endArrow=none;endFill=0;strokeWidth=2;" parent="1" source="6a7d8f32e03d9370-5" edge="1">
          <mxGeometry relative="1" as="geometry">
            <mxPoint x="637" y="200.85672042506064" as="targetPoint" />
          </mxGeometry>
        </mxCell>
        <mxCell id="OnugJWIFJ-SHljwlnt-U-5" value="" style="edgeStyle=none;rounded=0;orthogonalLoop=1;jettySize=auto;html=1;endArrow=none;startFill=0;" edge="1" parent="1" source="6a7d8f32e03d9370-5" target="6a7d8f32e03d9370-4">
          <mxGeometry relative="1" as="geometry" />
        </mxCell>
        <mxCell id="OnugJWIFJ-SHljwlnt-U-8" style="edgeStyle=orthogonalEdgeStyle;rounded=0;orthogonalLoop=1;jettySize=auto;html=1;endArrow=none;startFill=0;" edge="1" parent="1" source="6a7d8f32e03d9370-5">
          <mxGeometry relative="1" as="geometry">
            <mxPoint x="362.555623372396" y="533.3333333333335" as="targetPoint" />
            <Array as="points">
              <mxPoint x="330" y="205" />
              <mxPoint x="330" y="533" />
            </Array>
          </mxGeometry>
        </mxCell>
        <mxCell id="6a7d8f32e03d9370-37" style="edgeStyle=none;rounded=0;html=1;startSize=10;endSize=10;jettySize=auto;orthogonalLoop=1;fontSize=14;endArrow=none;endFill=0;strokeWidth=2;" parent="1" source="6a7d8f32e03d9370-6" edge="1">
          <mxGeometry relative="1" as="geometry">
            <mxPoint x="636.9999999999995" y="1032.0515947467165" as="targetPoint" />
          </mxGeometry>
        </mxCell>
        <mxCell id="6a7d8f32e03d9370-6" value="Client" style="verticalLabelPosition=bottom;aspect=fixed;html=1;verticalAlign=top;strokeColor=none;shape=mxgraph.citrix.pda;fillColor=#66B2FF;gradientColor=#0066CC;fontSize=14;" parent="1" vertex="1">
          <mxGeometry x="393.50000000000006" y="1065" width="30" height="61" as="geometry" />
        </mxCell>
        <mxCell id="6a7d8f32e03d9370-41" style="edgeStyle=none;rounded=0;html=1;startSize=10;endSize=10;jettySize=auto;orthogonalLoop=1;fontSize=14;endArrow=none;endFill=0;strokeWidth=2;" parent="1" edge="1">
          <mxGeometry relative="1" as="geometry">
            <mxPoint x="713" y="529.1255144032923" as="sourcePoint" />
            <mxPoint x="759" y="529.8827160493827" as="targetPoint" />
          </mxGeometry>
        </mxCell>
        <mxCell id="6a7d8f32e03d9370-5" value="etcd1" style="verticalLabelPosition=bottom;aspect=fixed;html=1;verticalAlign=top;strokeColor=none;shape=mxgraph.citrix.desktop;fillColor=#66B2FF;gradientColor=#0066CC;fontSize=14;direction=east;align=left;" parent="1" vertex="1">
          <mxGeometry x="366" y="156" width="85.37" height="94" as="geometry" />
        </mxCell>
        <mxCell id="6a7d8f32e03d9370-42" style="edgeStyle=none;rounded=0;html=1;startSize=10;endSize=10;jettySize=auto;orthogonalLoop=1;fontSize=14;endArrow=none;endFill=0;strokeWidth=2;" parent="1" edge="1">
          <mxGeometry relative="1" as="geometry">
            <mxPoint x="713" y="365.1255144032923" as="sourcePoint" />
            <mxPoint x="759" y="365.8827160493829" as="targetPoint" />
          </mxGeometry>
        </mxCell>
        <mxCell id="6a7d8f32e03d9370-43" style="edgeStyle=none;rounded=0;html=1;startSize=10;endSize=10;jettySize=auto;orthogonalLoop=1;fontSize=14;endArrow=none;endFill=0;strokeWidth=2;" parent="1" edge="1">
          <mxGeometry relative="1" as="geometry">
            <mxPoint x="713" y="201.1255144032923" as="sourcePoint" />
            <mxPoint x="759" y="201.8827160493828" as="targetPoint" />
          </mxGeometry>
        </mxCell>
        <mxCell id="6a7d8f32e03d9370-50" style="edgeStyle=none;rounded=0;html=1;startSize=10;endSize=10;jettySize=auto;orthogonalLoop=1;fontSize=14;endArrow=none;endFill=0;strokeWidth=2;" parent="1" source="6a7d8f32e03d9370-13" target="6a7d8f32e03d9370-16" edge="1">
          <mxGeometry relative="1" as="geometry" />
        </mxCell>
        <mxCell id="6a7d8f32e03d9370-51" style="edgeStyle=none;rounded=0;html=1;startSize=10;endSize=10;jettySize=auto;orthogonalLoop=1;fontSize=14;endArrow=none;endFill=0;strokeWidth=2;" parent="1" source="6a7d8f32e03d9370-13" edge="1">
          <mxGeometry relative="1" as="geometry">
            <mxPoint x="1000.5" y="369.5" as="targetPoint" />
          </mxGeometry>
        </mxCell>
        <mxCell id="6a7d8f32e03d9370-52" style="edgeStyle=none;rounded=0;html=1;startSize=10;endSize=10;jettySize=auto;orthogonalLoop=1;fontSize=14;endArrow=none;endFill=0;strokeWidth=2;" parent="1" source="6a7d8f32e03d9370-13" target="6a7d8f32e03d9370-26" edge="1">
          <mxGeometry relative="1" as="geometry" />
        </mxCell>
        <mxCell id="6a7d8f32e03d9370-56" style="edgeStyle=none;rounded=0;html=1;startSize=10;endSize=10;jettySize=auto;orthogonalLoop=1;fontSize=14;endArrow=none;endFill=0;strokeWidth=2;" parent="1" source="6a7d8f32e03d9370-13" target="6a7d8f32e03d9370-25" edge="1">
          <mxGeometry relative="1" as="geometry" />
        </mxCell>
        <mxCell id="6a7d8f32e03d9370-13" value="" style="verticalLabelPosition=bottom;aspect=fixed;html=1;verticalAlign=top;strokeColor=none;shape=mxgraph.citrix.router;fillColor=#66B2FF;gradientColor=#0066CC;fontSize=14;" parent="1" vertex="1">
          <mxGeometry x="973" y="587" width="55" height="36.5" as="geometry" />
        </mxCell>
        <mxCell id="6a7d8f32e03d9370-16" value="DNS" style="verticalLabelPosition=bottom;aspect=fixed;html=1;verticalAlign=top;strokeColor=none;shape=mxgraph.citrix.chassis;fillColor=#66B2FF;gradientColor=#0066CC;fontSize=14;" parent="1" vertex="1">
          <mxGeometry x="1129" y="858" width="137.5" height="177.5" as="geometry" />
        </mxCell>
        <mxCell id="6a7d8f32e03d9370-44" style="edgeStyle=none;rounded=0;html=1;startSize=10;endSize=10;jettySize=auto;orthogonalLoop=1;fontSize=14;endArrow=none;endFill=0;strokeWidth=2;" parent="1" target="6a7d8f32e03d9370-13" edge="1">
          <mxGeometry relative="1" as="geometry">
            <mxPoint x="970" y="200" as="sourcePoint" />
          </mxGeometry>
        </mxCell>
        <mxCell id="6a7d8f32e03d9370-45" style="edgeStyle=none;rounded=0;html=1;startSize=10;endSize=10;jettySize=auto;orthogonalLoop=1;fontSize=14;endArrow=none;endFill=0;strokeWidth=2;" parent="1" target="6a7d8f32e03d9370-13" edge="1">
          <mxGeometry relative="1" as="geometry">
            <mxPoint x="930" y="310" as="sourcePoint" />
          </mxGeometry>
        </mxCell>
        <mxCell id="6a7d8f32e03d9370-46" style="edgeStyle=none;rounded=0;html=1;startSize=10;endSize=10;jettySize=auto;orthogonalLoop=1;fontSize=14;endArrow=none;endFill=0;strokeWidth=2;" parent="1" target="6a7d8f32e03d9370-13" edge="1">
          <mxGeometry relative="1" as="geometry">
            <mxPoint x="930" y="680" as="sourcePoint" />
          </mxGeometry>
        </mxCell>
        <mxCell id="6a7d8f32e03d9370-47" style="edgeStyle=none;rounded=0;html=1;startSize=10;endSize=10;jettySize=auto;orthogonalLoop=1;fontSize=14;endArrow=none;endFill=0;strokeWidth=2;" parent="1" target="6a7d8f32e03d9370-13" edge="1">
          <mxGeometry relative="1" as="geometry">
            <mxPoint x="910" y="770" as="sourcePoint" />
          </mxGeometry>
        </mxCell>
        <mxCell id="6a7d8f32e03d9370-48" style="edgeStyle=none;rounded=0;html=1;startSize=10;endSize=10;jettySize=auto;orthogonalLoop=1;fontSize=14;endArrow=none;endFill=0;strokeWidth=2;" parent="1" target="6a7d8f32e03d9370-13" edge="1">
          <mxGeometry relative="1" as="geometry">
            <mxPoint x="920" y="870" as="sourcePoint" />
          </mxGeometry>
        </mxCell>
        <mxCell id="6a7d8f32e03d9370-23" value="" style="verticalLabelPosition=bottom;aspect=fixed;html=1;verticalAlign=top;strokeColor=none;shape=mxgraph.citrix.home_office;fillColor=#66B2FF;gradientColor=#0066CC;fontSize=14;" parent="1" vertex="1">
          <mxGeometry x="207" y="955" width="80" height="55.5" as="geometry" />
        </mxCell>
        <mxCell id="6a7d8f32e03d9370-25" value="Secure Server" style="verticalLabelPosition=bottom;aspect=fixed;html=1;verticalAlign=top;strokeColor=none;shape=mxgraph.citrix.proxy_server;fillColor=#66B2FF;gradientColor=#0066CC;fontSize=14;" parent="1" vertex="1">
          <mxGeometry x="1409" y="800" width="76.5" height="90" as="geometry" />
        </mxCell>
        <mxCell id="6a7d8f32e03d9370-53" style="edgeStyle=none;rounded=0;html=1;startSize=10;endSize=10;jettySize=auto;orthogonalLoop=1;fontSize=14;endArrow=none;endFill=0;strokeWidth=2;" parent="1" source="6a7d8f32e03d9370-26" target="6a7d8f32e03d9370-29" edge="1">
          <mxGeometry relative="1" as="geometry" />
        </mxCell>
        <mxCell id="6a7d8f32e03d9370-54" style="edgeStyle=none;rounded=0;html=1;startSize=10;endSize=10;jettySize=auto;orthogonalLoop=1;fontSize=14;endArrow=none;endFill=0;strokeWidth=2;" parent="1" source="6a7d8f32e03d9370-26" target="6a7d8f32e03d9370-28" edge="1">
          <mxGeometry relative="1" as="geometry" />
        </mxCell>
        <mxCell id="6a7d8f32e03d9370-55" style="edgeStyle=none;rounded=0;html=1;startSize=10;endSize=10;jettySize=auto;orthogonalLoop=1;fontSize=14;endArrow=none;endFill=0;strokeWidth=2;" parent="1" source="6a7d8f32e03d9370-26" target="6a7d8f32e03d9370-27" edge="1">
          <mxGeometry relative="1" as="geometry" />
        </mxCell>
        <mxCell id="6a7d8f32e03d9370-26" value="" style="verticalLabelPosition=bottom;aspect=fixed;html=1;verticalAlign=top;strokeColor=none;shape=mxgraph.citrix.switch;fillColor=#66B2FF;gradientColor=#0066CC;fontSize=14;" parent="1" vertex="1">
          <mxGeometry x="1175" y="508" width="92" height="41.5" as="geometry" />
        </mxCell>
        <mxCell id="6a7d8f32e03d9370-27" value="Client" style="verticalLabelPosition=top;aspect=fixed;html=1;verticalAlign=bottom;strokeColor=none;shape=mxgraph.citrix.thin_client;fillColor=#66B2FF;gradientColor=#0066CC;fontSize=14;labelPosition=center;align=center;" parent="1" vertex="1">
          <mxGeometry x="1437" y="498" width="71" height="71" as="geometry" />
        </mxCell>
        <mxCell id="6a7d8f32e03d9370-28" value="Client" style="verticalLabelPosition=top;aspect=fixed;html=1;verticalAlign=bottom;strokeColor=none;shape=mxgraph.citrix.thin_client;fillColor=#66B2FF;gradientColor=#0066CC;fontSize=14;labelPosition=center;align=center;" parent="1" vertex="1">
          <mxGeometry x="1359" y="374" width="71" height="71" as="geometry" />
        </mxCell>
        <mxCell id="6a7d8f32e03d9370-29" value="Client" style="verticalLabelPosition=top;aspect=fixed;html=1;verticalAlign=bottom;strokeColor=none;shape=mxgraph.citrix.thin_client;fillColor=#66B2FF;gradientColor=#0066CC;fontSize=14;labelPosition=center;align=center;" parent="1" vertex="1">
          <mxGeometry x="1203" y="338" width="71" height="71" as="geometry" />
        </mxCell>
        <mxCell id="6a7d8f32e03d9370-49" style="edgeStyle=none;rounded=0;html=1;startSize=10;endSize=10;jettySize=auto;orthogonalLoop=1;fontSize=14;endArrow=none;endFill=0;strokeWidth=2;" parent="1" source="6a7d8f32e03d9370-30" target="6a7d8f32e03d9370-13" edge="1">
          <mxGeometry relative="1" as="geometry" />
        </mxCell>
        <mxCell id="6a7d8f32e03d9370-30" value="Web service" style="verticalLabelPosition=bottom;aspect=fixed;html=1;verticalAlign=top;strokeColor=none;shape=mxgraph.citrix.web_service;fillColor=#66B2FF;gradientColor=#0066CC;fontSize=14;" parent="1" vertex="1">
          <mxGeometry x="992" y="910" width="63" height="60" as="geometry" />
        </mxCell>
        <mxCell id="6a7d8f32e03d9370-31" value="" style="verticalLabelPosition=bottom;aspect=fixed;html=1;verticalAlign=top;strokeColor=none;shape=mxgraph.citrix.site;fillColor=#66B2FF;gradientColor=#0066CC;fontSize=14;" parent="1" vertex="1">
          <mxGeometry x="1409" y="995" width="107" height="101" as="geometry" />
        </mxCell>
        <mxCell id="6a7d8f32e03d9370-62" value="Patroni postgres cluster and backup" style="text;strokeColor=none;fillColor=none;html=1;fontSize=24;fontStyle=1;verticalAlign=middle;align=center;" parent="1" vertex="1">
          <mxGeometry x="499" y="30" width="861" height="40" as="geometry" />
        </mxCell>
        <mxCell id="OnugJWIFJ-SHljwlnt-U-4" style="edgeStyle=orthogonalEdgeStyle;rounded=0;orthogonalLoop=1;jettySize=auto;html=1;exitX=0.5;exitY=1;exitDx=0;exitDy=0;" edge="1" parent="1" source="6a7d8f32e03d9370-57" target="6a7d8f32e03d9370-57">
          <mxGeometry relative="1" as="geometry" />
        </mxCell>
        <mxCell id="OnugJWIFJ-SHljwlnt-U-13" value="" style="edgeStyle=orthogonalEdgeStyle;rounded=0;orthogonalLoop=1;jettySize=auto;html=1;endArrow=none;startFill=0;" edge="1" parent="1" source="OnugJWIFJ-SHljwlnt-U-9" target="OnugJWIFJ-SHljwlnt-U-10">
          <mxGeometry relative="1" as="geometry" />
        </mxCell>
        <mxCell id="OnugJWIFJ-SHljwlnt-U-9" value="psql1" style="verticalLabelPosition=bottom;sketch=0;aspect=fixed;html=1;verticalAlign=top;strokeColor=none;align=left;outlineConnect=0;shape=mxgraph.citrix.database_server;" vertex="1" parent="1">
          <mxGeometry x="637" y="158" width="80" height="90" as="geometry" />
        </mxCell>
        <mxCell id="OnugJWIFJ-SHljwlnt-U-14" value="" style="edgeStyle=orthogonalEdgeStyle;rounded=0;orthogonalLoop=1;jettySize=auto;html=1;endArrow=none;startFill=0;" edge="1" parent="1" source="OnugJWIFJ-SHljwlnt-U-10" target="OnugJWIFJ-SHljwlnt-U-11">
          <mxGeometry relative="1" as="geometry" />
        </mxCell>
        <mxCell id="OnugJWIFJ-SHljwlnt-U-10" value="psql2" style="verticalLabelPosition=bottom;sketch=0;aspect=fixed;html=1;verticalAlign=top;strokeColor=none;align=left;outlineConnect=0;shape=mxgraph.citrix.database_server;" vertex="1" parent="1">
          <mxGeometry x="637" y="321.5" width="80" height="90" as="geometry" />
        </mxCell>
        <mxCell id="OnugJWIFJ-SHljwlnt-U-11" value="psql3" style="verticalLabelPosition=bottom;sketch=0;aspect=fixed;html=1;verticalAlign=top;strokeColor=none;align=left;outlineConnect=0;shape=mxgraph.citrix.database_server;" vertex="1" parent="1">
          <mxGeometry x="637" y="485.5" width="80" height="90" as="geometry" />
        </mxCell>
        <mxCell id="OnugJWIFJ-SHljwlnt-U-12" value="pgbouncer" style="verticalLabelPosition=bottom;sketch=0;aspect=fixed;html=1;verticalAlign=top;strokeColor=none;align=center;outlineConnect=0;shape=mxgraph.citrix.role_cloudbridge;fillColor=#CCCCCC;gradientColor=#000000;gradientDirection=south;" vertex="1" parent="1">
          <mxGeometry x="770" y="184" width="38" height="38" as="geometry" />
        </mxCell>
        <mxCell id="OnugJWIFJ-SHljwlnt-U-15" value="pgbouncer" style="verticalLabelPosition=bottom;sketch=0;aspect=fixed;html=1;verticalAlign=top;strokeColor=none;align=center;outlineConnect=0;shape=mxgraph.citrix.role_cloudbridge;fillColor=#CCCCCC;gradientColor=#000000;gradientDirection=south;" vertex="1" parent="1">
          <mxGeometry x="770" y="347.5" width="38" height="38" as="geometry" />
        </mxCell>
        <mxCell id="OnugJWIFJ-SHljwlnt-U-16" value="pgbouncer" style="verticalLabelPosition=bottom;sketch=0;aspect=fixed;html=1;verticalAlign=top;strokeColor=none;align=center;outlineConnect=0;shape=mxgraph.citrix.role_cloudbridge;fillColor=#CCCCCC;gradientColor=#000000;gradientDirection=south;" vertex="1" parent="1">
          <mxGeometry x="770" y="511.5" width="38" height="38" as="geometry" />
        </mxCell>
      </root>
    </mxGraphModel>
  </diagram>
</mxfile>
